<svg width="20" height="24" viewBox="0 0 20 24" fill="none" xmlns="http://www.w3.org/2000/svg">
<path d="M13 8.00002H19.54C19.1909 7.0749 18.6485 6.2349 17.949 5.53604L14.465 2.05004C13.7653 1.35137 12.9251 0.80935 12 0.460037V7.00004C12 7.55227 12.4477 8.00002 13 8.00002Z" fill="#D1D1D1"/>
<path d="M19.976 9.99998H13C11.3432 9.99998 10 8.65683 10 6.99998V0.024C9.83898 0.0129844 9.67801 0 9.51498 0H4.99998C2.23994 0.00332812 0.00329651 2.23997 1.52588e-05 5.00002V19C0.00329651 21.76 2.23994 23.9967 4.99998 24H15C17.76 23.9967 19.9967 21.76 20 19V10.485C20 10.322 19.987 10.161 19.976 9.99998Z" fill="#D1D1D1"/>
</svg>
